<svg xmlns="http://www.w3.org/2000/svg" xmlns:xlink="http://www.w3.org/1999/xlink" width="500" zoomAndPan="magnify" viewBox="0 0 375 374.999991" height="500" preserveAspectRatio="xMidYMid meet" version="1.0"><defs><clipPath id="d92449b3d7"><path d="M 111 65.34375 L 263 65.34375 L 263 259 L 111 259 Z M 111 65.34375 " clip-rule="nonzero"/></clipPath><clipPath id="0d6123e874"><path d="M 153 138 L 262 138 L 262 309.84375 L 153 309.84375 Z M 153 138 " clip-rule="nonzero"/></clipPath></defs><g clip-path="url(#d92449b3d7)"><path fill="#832f30" d="M 172.402344 163.800781 C 221.851562 134.855469 246.574219 120.382812 246.574219 120.382812 C 264.515625 109.855469 267.359375 91.65625 255.328125 65.5625 C 225.351562 82.886719 165.617188 112.707031 141.550781 133.101562 C 100.851562 167.96875 101.945312 209.628906 144.832031 258.53125 C 124.703125 221.253906 133.890625 189.675781 172.402344 164.019531 Z M 172.402344 163.800781 " fill-opacity="1" fill-rule="evenodd"/></g><g clip-path="url(#0d6123e874)"><path fill="#ed3237" d="M 255.765625 138.800781 C 267.140625 165.335938 261.234375 185.289062 237.820312 198.667969 C 201.0625 220.15625 188.59375 227.394531 201.0625 220.15625 C 183.121094 232.21875 178.308594 247.785156 186.839844 267.082031 C 186.621094 253.925781 193.625 241.644531 207.410156 230.460938 C 215.066406 245.59375 217.472656 250.636719 215.066406 245.59375 C 229.070312 269.933594 219.003906 291.421875 185.308594 309.84375 C 159.492188 252.609375 150.957031 233.3125 159.492188 252.609375 C 149.207031 229.367188 152.707031 209.191406 169.773438 191.867188 C 186.621094 174.984375 233.445312 151.960938 255.765625 138.800781 Z M 255.765625 138.800781 " fill-opacity="1" fill-rule="evenodd"/></g></svg>