<svg width="1701" height="1599" viewBox="0 0 1701 1599" fill="none" xmlns="http://www.w3.org/2000/svg">
<path d="M722.128 1257.16C702.341 1155.02 775.715 921.727 814.874 817.847C827.928 824.025 937.163 802.746 972.201 751.95C1000.23 711.314 1047.84 695.353 1071.13 688.112C1102.05 678.502 1153.57 679.874 1163.19 703.213L1173.5 727.239C1207.16 824.025 1177.85 971.15 1157.01 1036.82L1080.06 1050.55C1021.8 956.095 1051.67 840.958 1073.88 795.195C1050.25 827.046 983.882 860.634 953.653 873.447C952.279 957.879 823.119 1248.92 794.952 1267.46C772.418 1282.29 737.014 1266.77 722.128 1257.16Z" fill="black"/>
<path d="M771.476 1273.99L761.856 1291.47M731.621 1262.91L713.267 1311.37L711.693 1315.53C709.947 1319.72 708.736 1326.76 711.693 1332.76C713.778 1336.99 717.935 1340.7 725.437 1342.53C743.577 1346.96 811.79 1351.76 843.628 1353.61C849.126 1354.3 859.571 1351.67 857.371 1335.61C855.172 1319.54 843.628 1304.84 830.573 1298.91C819.982 1294.1 792.673 1286.63 761.856 1291.47L731.621 1262.91ZM752.235 1293.37C755.47 1292.6 758.682 1291.97 761.856 1291.47L752.235 1293.37Z" stroke="black" stroke-width="5" stroke-linecap="round"/>
<path d="M1091.04 1046.82C1090.35 1067.19 1092.2 1107.29 1097.23 1113.42C1103.43 1120.97 1111.01 1121.66 1157.16 1107.24C1194.08 1095.7 1208.82 1095.57 1217.77 1094.19C1223.97 1093.24 1231.55 1092.41 1231.55 1077.03C1231.55 1057.81 1223.97 1044.76 1200.55 1042.01C1181.82 1039.82 1155.09 1051.17 1144.07 1057.12V1038.58" stroke="black" stroke-width="5" stroke-linecap="round"/>
<path d="M1002.87 355.756C932.12 362.906 793.089 393.042 802.981 456.383C804.497 461.762 808.854 470.343 816.976 478.415C824.799 486.19 836.115 493.493 851.752 497.006" stroke="black" stroke-width="5" stroke-linecap="round"/>
<path d="M816.976 478.416C839.101 512.841 903.957 587.612 986.388 611.297" stroke="black" stroke-width="5" stroke-linecap="round"/>
<path d="M985.857 611.296C990.896 604.527 1004.14 592.292 1019.68 591.712" stroke="black" stroke-width="5" stroke-linecap="round"/>
<path d="M1019.68 591.711C1019.22 572.38 1002.92 522.527 941.348 477.769" stroke="black" stroke-width="5" stroke-linecap="round"/>
<path d="M923.544 493.794C929.934 483.448 949.564 461.486 976.955 456.406" stroke="black" stroke-width="5" stroke-linecap="round"/>
<path d="M1076.66 474.208C1079.62 477.715 1085.56 487.254 1085.56 497.353" stroke="black" stroke-width="5" stroke-linecap="round"/>
<path d="M1075.96 621.998C1089.99 621.312 1119.29 619.254 1124.26 616.509C1130.47 613.08 1131.85 613.08 1131.85 606.218C1131.85 599.359 1075.96 611.022 1075.96 589.068C1081.02 584.037 1089.21 572.741 1081.48 567.8C1073.75 562.861 1057.56 577.177 1050.43 584.952C1043.07 592.727 1026.55 604.985 1019.38 591.812" stroke="black" stroke-width="5" stroke-linecap="round"/>
<path d="M987.638 611.022C993.848 629.088 1016.2 661.513 1055.95 646.696C1095.69 631.878 1097.35 624.056 1093.21 621.998" stroke="black" stroke-width="5" stroke-linecap="round"/>
<path d="M1329.93 618.709C1339.59 616.069 1360.7 603.79 1367.87 575.785C1375.05 547.782 1365.34 547.645 1359.59 551.076" stroke="black" stroke-width="5" stroke-linecap="round"/>
<path d="M1294.05 598.437C1297.04 582.878 1307.58 552.861 1325.79 557.253" stroke="black" stroke-width="5" stroke-linecap="round"/>
<path d="M1301.64 573.039C1288.95 562.606 1281.18 586.538 1278.88 599.809C1264.53 604.201 1259.1 624.976 1258.18 634.814C1291.39 638.22 1314.98 629.302 1329.93 618.709C1339.08 612.223 1344.98 605.109 1347.87 599.809C1354.99 580.819 1365.39 541.192 1349.93 534.603C1334.48 528.014 1330.16 542.839 1329.93 551.075C1331.58 569.745 1321.88 590.428 1316.82 598.436" stroke="black" stroke-width="5" stroke-linecap="round"/>
<path d="M1101.58 621.773C1131.47 649.686 1204.65 691.371 1258.18 634.815" stroke="black" stroke-width="5" stroke-linecap="round"/>
<path d="M1096.24 625.538C1096.24 638.497 1093.03 668.033 1080.22 682.51" stroke="black" stroke-width="5" stroke-linecap="round"/>
<path d="M816.723 655.806C788.51 693.887 749.011 779.959 816.723 819.599" stroke="black" stroke-width="5" stroke-linecap="round"/>
<path d="M1660.61 492.012L1676.64 465.307" stroke="black" stroke-width="5" stroke-linecap="round"/>
<path d="M1668.44 505.972L1698 504.598" stroke="black" stroke-width="5" stroke-linecap="round"/>
<path d="M1662.39 522.279L1680.2 545.424" stroke="black" stroke-width="5" stroke-linecap="round"/>
<path d="M1080.43 1360.84H599.52V1595.83" stroke="black" stroke-width="5" stroke-linecap="round"/>
<path d="M1414.79 1126.53H1021.26V1413.06" stroke="black" stroke-width="5" stroke-linecap="round"/>
<path d="M1674.86 798.089H1355.62V1180.81" stroke="black" stroke-width="5" stroke-linecap="round"/>
<path d="M1618.44 548.094V851.686" stroke="black" stroke-width="5" stroke-linecap="round"/>
<path d="M1618.44 442.161V467.976" stroke="black" stroke-width="5" stroke-linecap="round"/>
<path d="M994.83 628.274L600.707 673.609C555.116 637.085 566.149 582.558 577.363 559.86L851.326 527.021" stroke="black" stroke-width="5" stroke-linecap="round"/>
<path d="M1130.09 617.327L1265.36 604.329" stroke="black" stroke-width="5" stroke-linecap="round"/>
<path d="M1364.23 589.962L1452.81 583.803L1571.59 529.962C1557.31 514.8 1565.15 501.295 1571.1 496.463L1452.81 468.867L984.531 507.864" stroke="black" stroke-width="5" stroke-linecap="round"/>
<path d="M534.923 560.425L575.072 556.104C547.227 618.485 579.145 660.923 599.52 677.436L552.661 684.29C513.495 636.591 523.591 583.21 534.923 560.425Z" fill="black"/>
<path d="M1575.87 532.961C1560.97 517.408 1569.34 498.885 1575.55 492.903L1632.13 506.867L1575.87 532.961Z" fill="black"/>
<path d="M1454.09 468.867C1439.31 487.629 1418.62 536.685 1454.09 582.81" stroke="black" stroke-width="5"/>
<path d="M1113.72 367.768C1125.49 360.52 1214.08 367.507 1231.3 256.072C1260.79 256.418 1276.82 232.263 1254.32 221.927C1230.34 209.559 1232.14 186.852 1236.49 173.473C1243.39 155.927 1243.81 137.505 1242.32 133.652" stroke="black" stroke-width="5" stroke-linecap="round"/>
<path d="M1205.31 215.833C1208.65 215.872 1211.41 211.835 1211.47 206.816C1211.53 201.798 1208.87 197.697 1205.52 197.658C1202.18 197.619 1199.42 201.656 1199.36 206.674C1199.3 211.693 1201.96 215.794 1205.31 215.833Z" fill="black"/>
<path d="M1188.86 179.053C1193.78 173.794 1206.5 166.102 1218.03 177.401" stroke="black" stroke-width="5" stroke-linecap="round"/>
<path d="M1155.44 281.45C1164.48 295.364 1174.41 299.314 1193.69 290.336" stroke="black" stroke-width="5" stroke-linecap="round"/>
<path d="M1081.42 183.93C1079.33 188.53 1077.57 198.974 1087.31 203.944" stroke="black" stroke-width="5" stroke-linecap="round"/>
<path d="M977.639 136.688C966.167 199.455 1002.06 246.704 1028.09 283.027C1055.88 268.011 1101.43 232.304 1083.96 228.45C1065.6 224.4 1046.23 174.312 1064.06 158.99C1084.98 141.014 1103.84 168.213 1107.44 188.837L1124.29 159.696C1119.52 139.313 1117.66 103.559 1148.3 123.603C1178.95 143.647 1223.9 138.396 1242.54 133.266C1279.31 106.951 1336.43 45.5705 1270.79 10.5672C1216.19 -18.546 1145.15 18.2609 1101.79 51.3339C1072.42 43.5824 993.281 51.1075 977.639 136.688Z" fill="black"/>
<path d="M1030.13 278.821C1043.4 294.798 1049.99 308.065 1049.17 335.549" stroke="black" stroke-width="5" stroke-linecap="round"/>
<path d="M1015.36 372.344C1010.71 356.136 1007.99 325.222 1034.27 331.231C1067.12 338.74 1134.08 371.225 1129.17 389.231" stroke="black" stroke-width="5" stroke-linecap="round"/>
<path d="M1129.18 414.567C1153.21 436.822 1158.55 451.065 1162.11 477.77" stroke="black" stroke-width="5" stroke-linecap="round"/>
<path d="M3.09961 1136.42C35.749 1133.44 112.683 1152.91 164.075 1253.04C165.419 1255.66 169.209 1255.73 170.548 1253.11C223.263 1149.91 287.961 1045.23 492.46 1171.27C495.604 1173.21 499.729 1169.7 498.171 1166.35C464.992 1094.99 447.062 958.907 601.67 891.394C604.772 890.041 604.635 885.432 601.387 884.481L561.395 872.793C557.729 871.721 558.128 866.692 561.933 866.348C603.13 862.636 661.25 865.055 641.241 889.363C617.879 917.742 612.134 935.686 617.829 965.314" stroke="black" stroke-width="5" stroke-linecap="round"/>
</svg>
