<svg width="559" height="562" viewBox="0 0 559 562" fill="none" xmlns="http://www.w3.org/2000/svg">
<ellipse cx="279.5" cy="281" rx="279.5" ry="281" fill="#D9D9D9"/>
<mask id="mask0_184_613" style="mask-type:luminance" maskUnits="userSpaceOnUse" x="155" y="92" width="249" height="309">
<path d="M155 92H403.88V400.14H155V92Z" fill="white"/>
</mask>
<g mask="url(#mask0_184_613)">
<path fill-rule="evenodd" clip-rule="evenodd" d="M255.061 248.907C336.284 202.779 376.892 179.715 376.892 179.715C406.361 162.942 411.036 133.934 391.268 92.3469C342.032 119.956 243.915 167.482 204.385 199.984C137.538 255.549 139.333 321.945 209.777 399.876C176.712 340.464 191.805 290.143 255.061 249.259V248.907Z" fill="#3B82F6"/>
</g>
<mask id="mask1_184_613" style="mask-type:luminance" maskUnits="userSpaceOnUse" x="224" y="196" width="179" height="275">
<path d="M224.36 196.967H402.52V470.648H224.36V196.967Z" fill="white"/>
</mask>
<g mask="url(#mask1_184_613)">
<path fill-rule="evenodd" clip-rule="evenodd" d="M391.985 198.069C410.675 240.356 400.974 272.153 362.517 293.473C302.14 327.719 281.655 339.248 302.14 327.719C272.672 346.942 264.761 371.75 278.781 402.502C278.42 381.535 289.921 361.966 312.563 344.146C325.138 368.256 329.096 376.296 325.138 368.256C348.141 407.048 331.609 441.294 276.263 470.648C233.853 379.438 219.839 348.686 233.853 379.438C216.965 342.396 222.713 310.246 250.747 282.637C278.42 255.732 355.329 219.037 391.985 198.069Z" fill="white"/>
</g>
</svg>
