<svg width="395" height="449" viewBox="0 0 395 449" fill="none" xmlns="http://www.w3.org/2000/svg">
<rect width="395" height="449" fill="#F5F5F5"/>
<mask id="mask0_183_596" style="mask-type:luminance" maskUnits="userSpaceOnUse" x="54" y="24" width="250" height="309">
<path d="M54.72 24.7H303.6V332.84H54.72V24.7Z" fill="white"/>
</mask>
<g mask="url(#mask0_183_596)">
<path fill-rule="evenodd" clip-rule="evenodd" d="M154.781 181.607C236.004 135.479 276.613 112.415 276.613 112.415C306.081 95.6416 310.756 66.6344 290.988 25.0469C241.752 52.6562 143.635 100.182 104.105 132.684C37.2578 188.249 39.0535 254.645 109.497 332.576C76.4322 273.164 91.525 222.843 154.781 181.959V181.607Z" fill="#3B82F6"/>
</g>
<mask id="mask1_183_596" style="mask-type:luminance" maskUnits="userSpaceOnUse" x="124" y="140" width="179" height="275">
<path d="M124.08 140.667H302.24V414.348H124.08V140.667Z" fill="white"/>
</mask>
<g mask="url(#mask1_183_596)">
<path fill-rule="evenodd" clip-rule="evenodd" d="M291.705 141.769C310.395 184.056 300.694 215.853 262.237 237.173C201.86 271.419 181.375 282.948 201.86 271.419C172.392 290.642 164.482 315.45 178.501 346.202C178.14 325.235 189.642 305.665 212.283 287.846C224.858 311.956 228.816 319.996 224.858 311.956C247.861 350.748 231.329 384.994 175.983 414.348C133.573 323.138 119.559 292.386 133.573 323.138C116.685 286.096 122.433 253.946 150.467 226.337C178.14 199.432 255.049 162.737 291.705 141.769Z" fill="white"/>
</g>
</svg>
