<svg width="154" height="154" viewBox="0 0 154 154" fill="none" xmlns="http://www.w3.org/2000/svg">
<path d="M117.037 64.8348C116.715 64.8348 116.715 65.4327 117.037 65.4327C117.803 65.4327 128.482 65.2564 129.378 65.0801C129.46 65.0678 129.535 65.0266 129.589 64.964C129.642 64.9014 129.672 64.8216 129.672 64.739C129.672 64.6564 129.642 64.5765 129.589 64.5139C129.535 64.4513 129.46 64.4102 129.378 64.3979C126.565 64.0299 120.134 64.7735 117.037 64.8348ZM121.314 80.4878C120.962 80.4878 121.023 81.078 121.36 81.0933C123.859 81.1777 127.753 81.0473 130.306 80.9324C130.774 80.9324 130.827 80.1658 130.306 80.1658C127.447 80.1811 124.181 80.2195 121.314 80.4878ZM121.644 54.0495C121.57 54.0527 121.499 54.0827 121.445 54.1341C121.391 54.1855 121.358 54.2547 121.352 54.3287C121.345 54.4028 121.366 54.4767 121.41 54.5367C121.453 54.5968 121.518 54.6388 121.59 54.655C122.962 54.8237 127.416 55 128.757 54.4327C128.826 54.3987 128.882 54.3432 128.916 54.2747C128.95 54.2062 128.962 54.1284 128.948 54.053C128.934 53.9777 128.896 53.9089 128.839 53.857C128.783 53.8052 128.711 53.7732 128.635 53.7658C126.856 53.6585 124.005 54.2258 121.644 54.0495ZM112.89 68.8592C119.36 68.7672 126.688 68.3149 133.219 67.717C133.625 67.717 133.587 66.9505 133.165 66.9505C126.741 67.1115 119.237 67.5331 112.852 68.1923C112.763 68.1974 112.68 68.2374 112.621 68.3035C112.562 68.3696 112.532 68.4565 112.537 68.5449C112.542 68.6333 112.582 68.7161 112.648 68.7751C112.715 68.834 112.801 68.8643 112.89 68.8592ZM122.165 34.7171C123.967 34.5791 125.768 34.4718 127.531 34.2571C128.037 34.2035 127.907 33.4906 127.408 33.4906C125.615 33.6286 123.821 33.8585 122.042 34.0655C121.629 34.1115 121.744 34.7477 122.165 34.7171ZM111.648 50.7073C111.265 50.7073 111.249 51.3589 111.648 51.3895C115.982 51.5914 120.324 51.2878 124.587 50.485C125.07 50.4007 124.994 49.6341 124.503 49.7184C120.258 50.4425 115.954 50.7735 111.648 50.7073ZM125.914 38.3888C126.58 38.5498 126.68 37.4613 126.067 37.5686C123.075 38.0537 120.043 38.2411 117.014 38.1282C116.608 38.1282 116.516 38.7185 116.93 38.7644C119.927 39.0653 122.952 38.9389 125.914 38.3888ZM109.31 68.4989C108.712 68.269 105.953 68.6522 105.178 68.7365C104.803 68.7365 104.787 69.3421 105.178 69.3345L108.314 69.2348C109.762 69.1811 109.755 68.6752 109.31 68.4989ZM112.476 101.668C111.832 101.514 107.256 101.859 106.505 101.905C106.106 101.905 106.183 102.518 106.581 102.511C107.394 102.511 111.847 102.511 112.553 102.288C112.867 102.181 112.76 101.729 112.476 101.668ZM106.497 98.425C108.651 98.5247 113.986 98.6167 116.14 98.1031C116.19 98.1027 116.24 98.0918 116.286 98.071C116.332 98.0502 116.373 98.0201 116.406 97.9825C116.44 97.9449 116.465 97.9008 116.48 97.8529C116.496 97.8049 116.501 97.7543 116.495 97.7043C116.49 97.6542 116.474 97.6059 116.449 97.5623C116.424 97.5188 116.39 97.481 116.349 97.4514C116.308 97.4218 116.262 97.4011 116.213 97.3905C116.164 97.38 116.113 97.3799 116.063 97.3902C112.913 97.3902 109.992 97.9191 106.589 97.7811C106.183 97.7658 106.075 98.402 106.497 98.425ZM113.932 84.7958C114.392 84.7114 114.354 84.0292 113.871 84.0292C110.468 84.3742 109.755 84.4585 106.267 84.5965C105.93 84.5965 105.891 85.179 106.267 85.202C108.829 85.3721 111.403 85.2358 113.932 84.7958ZM118.654 79.9742C114.484 80.1275 110.153 80.8327 105.799 80.986C105.721 80.998 105.651 81.0374 105.599 81.0972C105.548 81.1569 105.52 81.2331 105.52 81.3118C105.52 81.3905 105.548 81.4667 105.599 81.5264C105.651 81.5862 105.721 81.6256 105.799 81.6376C109.41 81.6376 115.22 81.4689 118.739 80.6871C118.812 80.6546 118.873 80.5994 118.913 80.5296C118.953 80.4599 118.969 80.3792 118.96 80.2995C118.95 80.2198 118.915 80.1451 118.861 80.0866C118.806 80.0281 118.733 79.9887 118.654 79.9742ZM132.859 99.7895C132.797 99.7895 128.589 100.134 127.868 100.111C127.8 100.124 127.738 100.158 127.69 100.208C127.643 100.259 127.613 100.323 127.605 100.392C127.597 100.461 127.612 100.531 127.647 100.591C127.682 100.651 127.735 100.698 127.799 100.725C128.658 100.886 132.276 100.947 133.019 100.318C133.057 100.277 133.083 100.227 133.095 100.173C133.107 100.118 133.105 100.062 133.089 100.008C133.073 99.9549 133.043 99.9068 133.003 99.8684C132.962 99.8301 132.913 99.8029 132.859 99.7895ZM134.215 83.071C128.903 83.416 122.97 83.6153 117.681 84.0675C117.267 84.0675 117.344 84.6884 117.742 84.7114C120.601 84.7958 130.773 84.2745 134.284 83.8299C134.334 83.8261 134.383 83.8123 134.428 83.7892C134.473 83.7662 134.512 83.7344 134.544 83.6959C134.576 83.6573 134.601 83.6126 134.615 83.5645C134.63 83.5165 134.635 83.4659 134.629 83.416C134.62 83.3156 134.571 83.2231 134.493 83.1585C134.416 83.0939 134.316 83.0625 134.215 83.071ZM114.262 65.6397C114.364 65.6397 114.461 65.5993 114.533 65.5274C114.605 65.4555 114.645 65.3581 114.645 65.2564C114.645 65.1548 114.605 65.0573 114.533 64.9854C114.461 64.9135 114.364 64.8731 114.262 64.8731C110.958 64.9575 107.624 64.9804 104.297 65.2334C104.225 65.2493 104.161 65.2891 104.116 65.3462C104.07 65.4034 104.045 65.4744 104.045 65.5477C104.045 65.621 104.07 65.692 104.116 65.7492C104.161 65.8063 104.225 65.8461 104.297 65.862C107.639 65.9233 110.958 65.747 114.262 65.6397ZM127.332 96.5853C126.167 96.5853 121.966 96.8843 120.969 97.0606C120.647 97.1142 120.601 97.6431 120.969 97.6585C122.05 97.7121 126.228 97.4438 127.439 97.3365C127.907 97.3519 127.807 96.5853 127.332 96.5853ZM125.093 100.886L115.458 101.499C115.021 101.499 115.128 102.166 115.557 102.143C117.428 102.058 123.445 101.821 125.132 101.591C125.507 101.545 125.515 100.886 125.093 100.886ZM118.194 34.2571C115.366 33.9352 106.489 34.4718 103.477 34.7784C103.063 34.8167 103.032 35.4606 103.477 35.4223C108.429 35.1003 113.25 34.993 118.202 35.0083C118.289 34.9899 118.366 34.9421 118.421 34.8731C118.477 34.804 118.506 34.718 118.505 34.6296C118.504 34.5412 118.473 34.4558 118.416 34.3879C118.36 34.32 118.281 34.2738 118.194 34.2571ZM119.015 54.9463C119.498 54.8773 119.321 54.1798 118.838 54.1798C113.904 54.7419 108.94 54.9979 103.975 54.9463C103.903 54.9578 103.837 54.9946 103.79 55.0501C103.743 55.1056 103.717 55.1762 103.717 55.2491C103.717 55.322 103.743 55.3926 103.79 55.4481C103.837 55.5036 103.903 55.5404 103.975 55.5519C108.996 55.7937 114.029 55.5911 119.015 54.9463ZM113.81 38.8948C113.86 38.89 113.909 38.8752 113.954 38.8514C113.999 38.8276 114.038 38.7951 114.07 38.7559C114.102 38.7167 114.126 38.6715 114.141 38.623C114.155 38.5745 114.16 38.5235 114.155 38.4732C114.15 38.4227 114.135 38.3738 114.111 38.3291C114.088 38.2844 114.055 38.2448 114.016 38.2127C113.977 38.1807 113.931 38.1567 113.883 38.1422C113.834 38.1277 113.783 38.1229 113.733 38.1282C110.353 38.5498 107.148 38.5651 103.814 38.8564C103.461 38.8948 103.423 39.4697 103.814 39.485C107.156 39.539 110.497 39.3417 113.81 38.8948ZM104.312 51.0292C103.929 51.0292 103.921 51.6348 104.358 51.6501C105.734 51.7797 107.117 51.8156 108.498 51.7575C108.56 51.7297 108.613 51.6845 108.65 51.6274C108.687 51.5702 108.706 51.5036 108.706 51.4355C108.706 51.3674 108.687 51.3008 108.65 51.2436C108.613 51.1865 108.56 51.1413 108.498 51.1136C108.36 51.0369 105.017 51.0292 104.312 51.0292ZM94.7457 55.4446C95.1902 55.4446 96.8383 52.7157 97.7659 51.7805C98.1031 51.4432 97.5512 50.8759 97.2063 51.1979C96.2284 52.0795 95.3817 53.0966 94.692 54.2181L92.7526 52.432C92.354 52.0641 91.8404 52.6927 92.2084 53.0683C92.5763 53.4439 94.1784 55.4446 94.7457 55.4446ZM89.5025 42.9268C92.6453 43.1108 95.9108 43.0495 99.3603 43.0725C99.6056 43.0725 99.7512 42.3902 99.3603 34.2495C99.3603 33.6592 99.3066 33.2223 99.299 33.0613C99.3009 33.0376 99.2979 33.0137 99.2899 32.9912C99.282 32.9688 99.2694 32.9482 99.253 32.931C99.0307 32.6934 97.5819 32.7087 94.3241 32.793C88.8432 32.9233 88.2376 32.885 88.2376 33.1993C88.2146 33.2606 88.5596 42.8348 89.5025 42.9268ZM89.7171 42.3596C89.3338 40.3129 89.0579 35.9895 88.8202 33.5672C91.0509 33.6976 96.1331 33.4446 98.6934 33.3833C98.6934 33.3833 98.8314 40.1979 98.8927 42.3979C95.8878 42.3289 92.7526 42.2139 89.6864 42.3212L89.7171 42.3596Z" fill="black"/>
<path d="M100.418 57.4453C101.062 57.1923 100.311 50.048 100.203 48.17C100.198 48.1314 100.179 48.096 100.15 48.0704C99.6899 47.6717 89.9623 48.2007 89.4718 48.239C88.9812 48.2773 89.4718 50.9449 89.5561 52.7616C89.7324 57.2843 89.9394 57.6752 90.1693 57.7059C91.8404 57.9435 98.885 58.0432 100.418 57.4453ZM89.9394 48.8676C93.2585 48.6529 96.6237 48.6376 99.6132 48.6223C99.6899 50.416 99.8125 55.4676 99.9658 56.832C96.8417 57.1551 93.6978 57.2448 90.5603 57.1003C90.6906 55.9581 90.0543 50.163 89.9394 48.8676ZM96.1791 68.223L97.9575 66.6132C98.0093 66.5256 98.0321 66.4238 98.0227 66.3224C98.0132 66.221 97.9719 66.1252 97.9048 66.0487C97.8376 65.9722 97.748 65.9189 97.6487 65.8964C97.5494 65.8738 97.4455 65.8833 97.3519 65.9233C96.6237 66.3718 95.963 66.9215 95.3895 67.5561L93.7951 66.0843C93.7087 66.004 93.5939 65.9613 93.476 65.9656C93.3582 65.9699 93.2468 66.0209 93.1665 66.1073C93.0862 66.1937 93.0435 66.3084 93.0478 66.4263C93.0522 66.5442 93.1031 66.6555 93.1895 66.7358L94.7226 68.2689C93.3428 69.7254 92.7373 70.6376 92.8752 71.0515C93.0132 71.4655 93.5115 71.2815 93.6418 71.0975C94.1784 70.4383 94.7839 69.6871 95.4355 68.9895C96.0814 69.6947 96.7981 70.3318 97.5742 70.8905C97.6543 70.9113 97.7385 70.9101 97.8179 70.887C97.8973 70.864 97.9691 70.8199 98.0256 70.7595C98.0821 70.699 98.1212 70.6245 98.1389 70.5437C98.1566 70.4629 98.1522 70.3788 98.1261 70.3003C97.5491 69.5437 96.8967 68.8477 96.1791 68.223ZM96.5853 35.361C95.3609 36.4318 94.3605 37.7344 93.6418 39.1937C93.0644 38.5025 92.3996 37.8892 91.6641 37.3693C91.2118 37.055 90.6292 37.6529 91.0738 37.9902C91.9482 38.763 92.7655 39.5982 93.5191 40.4892C93.7184 40.6961 93.9101 40.5888 94.0787 40.3665C94.9135 38.7402 95.9431 37.2214 97.1449 35.8439C97.5129 35.4376 96.9839 34.9853 96.5853 35.361ZM96.34 85.409C96.7387 85.133 98.2564 82.2048 99.138 81.2083C99.4829 80.825 98.885 80.2961 98.4941 80.7024C97.4447 81.7835 96.5449 83.0004 95.8188 84.3205L94.0327 82.7874C93.6418 82.4578 93.1205 83.048 93.5268 83.439C93.9331 83.8299 95.6808 85.9762 96.34 85.409ZM102.189 95.2362C101.898 94.6613 91.4111 95.2362 91.3115 95.2362C91.2886 95.239 91.2668 95.2475 91.2481 95.2608C91.2293 95.2742 91.2142 95.2921 91.2042 95.3128C90.8515 95.8801 91.2042 105.102 91.4571 105.96C91.7561 107.003 101.921 106.137 102.426 106.183C102.442 106.186 102.458 106.186 102.473 106.182C102.488 106.179 102.502 106.172 102.515 106.163C102.527 106.153 102.537 106.141 102.545 106.128C102.552 106.114 102.556 106.098 102.557 106.083C102.718 104.91 102.227 95.3128 102.189 95.2362ZM91.8021 95.7958C94.8683 95.9261 98.4941 95.7344 101.606 95.7268C101.652 97.0069 101.928 104.519 101.967 105.531C98.563 105.684 95.7038 105.631 92.078 105.531C92.1164 104.251 91.8481 96.9609 91.8021 95.8187V95.7958Z" fill="black"/>
<path d="M95.5045 100.763C96.0488 100.763 98.8313 100.955 99.0536 100.832C99.1122 100.799 99.1623 100.752 99.2 100.696C99.2377 100.641 99.2619 100.577 99.2708 100.51C99.2797 100.443 99.2731 100.375 99.2514 100.311C99.2296 100.248 99.1934 100.19 99.1456 100.142C98.7393 99.7128 96.1714 99.8048 95.7421 99.8891C95.1596 99.9965 95.0522 100.219 95.0676 100.387C95.088 100.49 95.1421 100.582 95.2213 100.65C95.3005 100.719 95.4002 100.758 95.5045 100.763ZM96.5394 78.2648C94.0251 78.3108 91.3805 78.4027 90.9435 78.4334C90.7749 78.4334 90.5986 78.579 90.5756 80.1735C90.5756 82.0822 90.9052 88.1303 91.6718 88.1839C93.2049 88.2989 101.131 88.3296 102.15 88.2529C102.311 88.2529 102.442 88.2529 102.15 84.2669C101.99 82.2125 101.629 78.4794 101.629 78.4794C101.599 78.3261 101.583 78.1881 96.5394 78.2648ZM101.054 78.9393C101.238 81.7986 101.338 84.7268 101.645 87.6013H91.8941C91.5951 84.8341 91.3958 81.9825 91.1812 79.0543L101.054 78.9393ZM92.7526 73.9491C95.8648 73.9491 101.07 73.5275 101.116 73.5045C101.606 73.2515 101.116 66.3296 100.955 63.3707C100.955 62.8418 98.2488 62.8341 96.0028 62.9184C95.0216 62.9184 90.1463 63.1791 90.1617 63.8766C90.4223 74.1407 90.361 73.6425 90.5526 73.7498C91.2699 73.9369 92.0133 74.0043 92.7526 73.9491ZM91.1352 73.1825C90.9589 70.1623 90.8975 66.9582 90.7749 63.9839C93.958 63.7012 97.1542 63.5938 100.349 63.662C100.349 64.7122 100.556 71.6954 100.686 72.8606C99.5519 72.9372 92.3233 72.9909 91.1582 73.1902L91.1352 73.1825Z" fill="black"/>
<path d="M148.711 85.294C146.702 30.662 147.546 31.1219 147.178 30.8C146.656 30.3094 142.632 30.6313 141.643 30.685L141.229 22.3066C141.249 22.2561 141.256 22.2015 141.25 22.1476C141.245 22.0937 141.226 22.0419 141.196 21.9968C141.166 21.9517 141.125 21.9144 141.078 21.8883C141.03 21.8622 140.977 21.8479 140.923 21.8467C124.825 21.6474 108.26 22.7129 91.6488 23.8397C87.1721 24.154 82.5192 24.43 77.9659 24.9129C77.9233 24.906 77.8797 24.9087 77.8383 24.9208C77.7969 24.9328 77.7587 24.9539 77.7264 24.9825C77.6942 25.0111 77.6687 25.0465 77.6517 25.0862C77.6348 25.1258 77.6269 25.1688 77.6286 25.2118C78.4718 45.6787 80.9247 78.763 85.1638 115.396C85.2098 115.818 88.7052 115.45 91.8481 115.243C91.8892 116.145 92.0516 117.037 92.331 117.895C92.7909 118.478 149.654 114.952 149.585 112.53C149.339 103.431 149.01 94.2167 148.711 85.294ZM144.403 109.195C124.242 112.261 106.114 113.12 85.869 114.868C81.8599 80.1351 80.2119 56.3108 78.2035 25.4495C84.4279 25.0815 107.447 22.9659 140.7 22.5289C141.528 44.8125 144.61 106.742 144.38 109.195H144.403ZM48.1777 56.4947C47.6565 56.4947 47.6641 57.5066 47.9094 57.8899C47.9378 57.946 47.9819 57.9926 48.0364 58.0239C48.0909 58.0552 48.1533 58.0699 48.2161 58.0662C48.6837 58.0125 48.6607 56.5484 48.1777 56.4947ZM45.4412 60.9254C45.7708 61.0097 46.66 61.0634 46.8669 60.7568C47.1582 60.3275 46.3687 56.4334 46.269 56.1575C46.2485 56.1012 46.2087 56.0539 46.1566 56.0243C46.1045 55.9946 46.0436 55.9844 45.9847 55.9954C45.9258 56.0065 45.8727 56.038 45.835 56.0846C45.7972 56.1311 45.7772 56.1895 45.7784 56.2495C45.7784 56.947 46.0927 59.3157 46.2154 60.3045L45.4488 60.3505C45.3928 60.3744 45.3449 60.414 45.311 60.4646C45.277 60.5152 45.2585 60.5745 45.2577 60.6355C45.2569 60.6964 45.2738 60.7562 45.3064 60.8077C45.3389 60.8591 45.3858 60.9001 45.4412 60.9254ZM47.5262 55.0613C47.7531 54.9992 47.9917 54.9932 48.2214 55.044C48.4511 55.0947 48.665 55.2006 48.8446 55.3526C49.1436 55.6209 49.7185 55.1073 48.8983 54.586C48.308 54.1874 46.9283 54.0495 47.0739 54.7547C47.0977 54.8529 47.1572 54.9387 47.2408 54.9954C47.3244 55.0521 47.4262 55.0756 47.5262 55.0613Z" fill="black"/>
<path d="M70.0014 82.9254C65.0724 78.0654 56.2035 72.3546 48.2313 71.2202C48.3634 70.7645 48.3634 70.2807 48.2313 69.825C48.8382 69.3178 49.4022 68.7615 49.9178 68.1616C51.0139 66.8738 50.9909 65.6167 49.4272 66.2529C50.9603 62.8648 50.9603 55.5212 50.4083 51.3972C52.9763 52.9993 57.3073 51.4585 56.7784 48.331C60.2662 49.3811 62.5352 42.4515 58.1045 41.2021C58.7254 35.9589 52.0104 35.2 49.9561 38.2585C48.7986 34.878 43.4787 36.6564 43.862 39.3087C41.4627 36.7331 36.2808 37.6299 35.5603 40.8418C33.3909 38.8717 29.8111 39.7073 30.1254 42.6125C26.6913 41.0181 24.8746 45.1268 27.5422 46.4453C25.8328 47.3651 25.8864 51.1519 28.508 51.1519C28.508 53.6815 30.0411 59.4766 33.8355 62.6501C34.2418 66.1993 33.5136 68.016 32.2488 71.3045C19.7387 73.2055 10.2411 82.9637 5.9791 95.0675C1.11918 108.865 3.42649 121.897 17.83 124.641C17.8 126.482 17.5843 128.316 17.1861 130.114C17.1789 130.182 17.1964 130.25 17.2354 130.306C17.2744 130.362 17.3323 130.402 17.3984 130.419C17.4645 130.436 17.5345 130.428 17.5955 130.397C17.6564 130.367 17.7043 130.315 17.7303 130.252C18.2434 128.466 18.5217 126.621 18.5582 124.764C22.0282 125.279 25.5731 124.738 28.7313 123.211C31.8896 121.684 34.5149 119.241 36.2655 116.201C38.4845 117.044 40.7494 117.761 43.0495 118.348C50.2857 120.394 59.7219 122.426 68.6599 120.003C68.4836 124.288 68.2383 127.723 67.855 131.134C67.855 131.471 68.3226 131.571 68.3763 131.233C68.6752 129.44 69.4188 121.567 69.3728 119.796C75.0606 118.049 78.8627 114.101 79.7979 108.973C81.4306 100.28 77.7512 90.5219 70.0014 82.9254ZM37.446 49.9101C37.6453 52.1484 37.446 53.7428 36.7638 54.7777C36.5108 55.1533 36.1275 55.5442 35.7979 55.5442C35.5449 55.2682 33.8892 53.5512 32.3254 54.5554C31.3059 55.2223 31.2599 56.5177 32.2258 58.2041C32.9161 59.2284 33.41 60.3721 33.6822 61.577C30.7463 58.3881 29.8495 55.3986 29.1749 51.1135C29.9541 50.973 30.6653 50.5797 31.1986 49.9944C32.5401 51.9874 35.8209 51.5888 37.446 49.9101ZM32.6934 55.0613C33.7282 54.425 34.6864 55.1916 35.5603 55.9581C36.0739 56.4104 36.9171 55.7742 37.3157 55.1916C38.3582 53.7505 38.2662 51.3588 38.1282 50.163C38.8722 50.8716 39.8603 51.2669 40.8878 51.2669C41.9153 51.2669 42.9033 50.8716 43.6474 50.163C43.8007 52.3707 48.4306 52.8766 49.6495 51.0446C50.209 54.8773 50.4773 63.1637 48.6223 66.6362C47.0892 67.3107 43.6014 68.8515 41.869 68.1693C40.3819 67.579 39.6306 65.3101 37.8982 64.3365C36.7331 63.6926 35.7366 64.4209 36.5491 65.724C38.6035 68.9895 38.4195 70.2313 36.7944 73.5888C35.3701 73.2006 34.0382 72.5308 32.8773 71.6188C34.5638 69.2041 35.0237 64.8961 34.6021 62.0292C34.2265 59.4766 33.8355 59.6299 32.8237 57.7442C32.3561 56.97 31.9422 55.5365 32.6934 55.0613ZM45.6251 70.5226C45.5639 70.551 45.5153 70.6007 45.4883 70.6625C45.4613 70.7242 45.4579 70.7938 45.4786 70.8579C45.4994 70.922 45.5429 70.9763 45.6009 71.0106C45.659 71.0448 45.7275 71.0567 45.7937 71.0438C46.451 70.9264 47.0741 70.6646 47.6181 70.2773C47.6622 70.9921 47.474 71.702 47.0815 72.301C46.9435 72.4926 47.1888 73.0675 47.6871 72.3546C47.6488 74.4703 46.5679 77.0843 44.4906 78.1114C43.0827 77.8569 41.7427 77.3134 40.5554 76.5152C39.368 75.717 38.3588 74.6815 37.5916 73.4738C39.8913 69.5337 37.8676 66.5749 37.193 65.3484C36.8174 64.6432 37.0091 64.5358 37.6223 64.9344C39.0711 65.8543 40.3435 68.4222 41.7463 68.7672C44.3909 69.4034 47.6488 67.809 49.2432 67.0961C50.0711 66.7205 50.554 66.4675 49.5575 67.717C48.2237 69.3651 47.4648 69.71 45.6251 70.5226ZM13.1847 103.239C13.1569 103.301 13.1526 103.372 13.1725 103.437C13.1923 103.502 13.235 103.558 13.2928 103.594C13.3505 103.631 13.4194 103.645 13.4869 103.635C13.5543 103.624 13.6158 103.59 13.6599 103.538C20.3826 92.9442 31.5052 85.593 37.2313 74.2557C38.1205 76.2334 41.9226 78.7783 44.2683 78.7783C44.2683 80.687 44.0766 82.956 43.8773 85.133C41.5777 84.6041 35.361 82.6571 34.2418 80.1121C34.1115 79.7978 33.6056 80.0125 33.7282 80.3268C34.7784 83.1707 41.2634 85.455 43.8083 85.9379C43.2708 91.6656 42.2059 97.3314 40.6272 102.863C39.4697 107.003 37.9826 112.008 35.8362 115.711C34.1251 118.755 31.5069 121.189 28.3465 122.674C25.1862 124.16 21.6412 124.622 18.2056 123.997C4.05506 121.513 1.92405 108.75 6.73032 95.2668C11.2223 82.6341 21.0571 73.7421 32.4021 72.0557C33.6353 72.965 34.9833 73.7073 36.4111 74.2634C30.662 85.3553 19.7003 92.6376 13.1847 103.239ZM41.2864 103.185C48.7351 100.046 56.6492 98.1531 64.7122 97.5818C67.0118 97.4285 69.3115 97.4362 71.6111 97.4362C71.9484 97.4362 71.9561 96.8842 71.6111 96.8842C70.0473 96.7758 68.4789 96.7476 66.9122 96.7999C66.5366 93.7337 61.0097 84.7881 59.1317 82.3121C59.0836 82.2667 59.0208 82.24 58.9547 82.237C58.8886 82.234 58.8236 82.2548 58.7716 82.2957C58.7196 82.3366 58.684 82.3948 58.6713 82.4597C58.6586 82.5246 58.6696 82.5919 58.7024 82.6494C62.4662 87.9233 65.5094 94.6383 66.115 96.8306C59.377 97.0835 48.9826 98.678 41.501 102.342C42.2063 99.7588 44.9352 89.1038 44.9965 78.579C47.1045 77.6362 48.607 74.225 48.4306 71.933C56.3786 73.7431 63.6682 77.7236 69.4878 83.4313C76.3177 90.1233 80.5031 98.7623 79.2153 108.153C78.5331 113.518 74.7233 117.673 69.0355 119.183C59.2313 121.866 49.1435 119.536 39.462 116.531C38.5248 116.215 37.5701 115.954 36.6028 115.749C38.5619 111.72 40.1303 107.513 41.2864 103.185Z" fill="black"/>
<path d="M40.9107 53.8348C41.1088 53.5421 41.373 53.3 41.682 53.1283C41.9909 52.9565 42.3359 52.8598 42.6891 52.846C43.2487 52.846 43.218 52.0028 42.6891 52.0794C42.2338 52.1273 41.7955 52.2785 41.4075 52.5217C41.0196 52.7648 40.6924 53.0933 40.4508 53.4822C40.2515 53.7965 40.6961 54.1414 40.9107 53.8348ZM42.7198 55.9582C42.4055 56.2111 42.4285 57.4913 42.9038 57.4913C43.0125 57.4799 43.1141 57.4321 43.1921 57.3555C43.27 57.2789 43.3197 57.1781 43.333 57.0697C43.5093 56.4028 43.0571 55.7205 42.7198 55.9582ZM42.0452 62.2899C42.0309 62.2299 41.9984 62.1759 41.9522 62.1351C41.906 62.0944 41.8483 62.0689 41.787 62.0622C41.7258 62.0555 41.6639 62.0678 41.61 62.0976C41.556 62.1274 41.5126 62.1731 41.4856 62.2285C41.409 62.3359 41.2633 62.6655 41.5853 63.3324C41.8038 63.7864 42.181 64.1446 42.6457 64.3395C43.1103 64.5344 43.6302 64.5525 44.1072 64.3902C44.1718 64.3646 44.2248 64.3161 44.256 64.254C44.2872 64.1919 44.2945 64.1204 44.2765 64.0533C44.2586 63.9861 44.2166 63.9279 44.1585 63.8897C44.1005 63.8515 44.0304 63.8359 43.9616 63.846C42.8731 64.0606 42.2445 63.3707 42.0452 62.2899Z" fill="black"/>
</svg>
